<?xml version="1.0" standalone="no"?><!DOCTYPE svg PUBLIC "-//W3C//DTD SVG 1.1//EN" "http://www.w3.org/Graphics/SVG/1.1/DTD/svg11.dtd"><svg t="1716185510878" class="icon" viewBox="0 0 1024 1024" version="1.1" xmlns="http://www.w3.org/2000/svg" p-id="12417" xmlns:xlink="http://www.w3.org/1999/xlink" width="50" height="50"><path d="M947.346286 500.297143l-160.109715-205.677714a42.276571 42.276571 0 0 0-68.022857 0L560.859429 500.297143a24.283429 24.283429 0 0 0-2.706286 25.234286 23.259429 23.259429 0 0 0 21.065143 13.458285h62.976c0 119.954286 0 272.749714-207.36 393.947429a5.851429 5.851429 0 0 0-3.437715 7.387428 5.632 5.632 0 0 0 7.314286 3.584c393.216-64.512 424.740571-332.068571 425.984-404.260571h63.049143a23.917714 23.917714 0 0 0 20.918857-14.409143 24.941714 24.941714 0 0 0-3.291428-25.6l1.901714 0.658286z m-504.246857 51.565714h-62.976c5.632-120.539429 5.632-272.749714 208.603428-394.605714a5.851429 5.851429 0 0 0 2.925714-6.802286A5.632 5.632 0 0 0 585.581714 146.285714C192.292571 210.797714 160.109714 479.085714 159.451429 550.546286h-63.049143a23.332571 23.332571 0 0 0-20.992 13.531428 24.283429 24.283429 0 0 0 2.706285 25.161143l159.451429 205.677714a42.276571 42.276571 0 0 0 68.022857 0l156.964572-205.677714a24.283429 24.283429 0 0 0 2.194285-24.649143 23.259429 23.259429 0 0 0-20.48-13.385143l-1.243428 0.658286z" fill="#fea194" p-id="12418"></path></svg>